<svg width="82" height="80" viewBox="0 0 82 80" fill="none" xmlns="http://www.w3.org/2000/svg">
<rect width="82" height="80" fill="#284B63"/>
<path d="M46.624 40.584C49.5253 41.0533 51.744 42.0133 53.28 43.464C54.816 44.872 55.584 46.5147 55.584 48.392C55.584 50.4827 54.6027 52.5307 52.64 54.536C50.72 56.5413 48.0533 58.184 44.64 59.464C41.2693 60.7013 37.5573 61.32 33.504 61.32C32.2667 61.32 30.8373 60.8293 29.216 59.848C27.6373 58.8667 26.272 57.736 25.12 56.456C24.0107 55.1333 23.456 54.024 23.456 53.128C23.456 52.3173 24.3733 47.624 26.208 39.048C27.5733 32.648 28.4693 28.232 28.896 25.8L26.656 26.12C25.248 24.6267 24.544 22.9413 24.544 21.064C24.544 19.6987 24.928 18.3973 25.696 17.16C29.408 16.3067 32.544 15.88 35.104 15.88C38.9867 15.88 42.592 16.4987 45.92 17.736C49.248 18.9733 51.8933 20.616 53.856 22.664C55.8187 24.712 56.8 26.9093 56.8 29.256C56.8 31.6027 55.904 33.8213 54.112 35.912C52.3627 37.96 49.8667 39.5173 46.624 40.584ZM36.192 37.512C39.8613 37 42.656 36.0827 44.576 34.76C46.5387 33.3947 47.52 31.816 47.52 30.024C47.52 28.7867 46.8373 27.7413 45.472 26.888C44.1493 25.992 42.4 25.544 40.224 25.544C39.328 25.544 38.624 25.5867 38.112 25.672C37.8133 27.592 37.6 28.9147 37.472 29.64C37.0453 32.6693 36.6187 35.2933 36.192 37.512ZM32.928 53.576C36.8107 53.32 39.712 52.5947 41.632 51.4C43.5947 50.2053 44.576 48.7333 44.576 46.984C44.576 46.0027 44.192 45.1707 43.424 44.488C42.6987 43.8053 41.568 43.3787 40.032 43.208C38.7093 43.1227 37.28 43.208 35.744 43.464L35.36 44.872C34.2507 48.6267 33.44 51.528 32.928 53.576Z" fill="white"/>
</svg>
