<svg width="24" height="23" viewBox="0 0 24 23" fill="none" xmlns="http://www.w3.org/2000/svg">
<path d="M22.1333 23L13.7333 14.95C13.0667 15.4611 12.3 15.8657 11.4333 16.1639C10.5667 16.462 9.64445 16.6111 8.66667 16.6111C6.24445 16.6111 4.19467 15.807 2.51733 14.1987C0.840001 12.5904 0.000889594 10.626 7.05467e-07 8.30556C-0.000888183 5.98511 0.838223 4.02074 2.51733 2.41244C4.19645 0.804148 6.24622 0 8.66667 0C11.0871 0 13.1373 0.804148 14.8173 2.41244C16.4973 4.02074 17.336 5.98511 17.3333 8.30556C17.3333 9.24259 17.1778 10.1264 16.8667 10.9569C16.5556 11.7875 16.1333 12.5222 15.6 13.1611L24 21.2111L22.1333 23ZM8.66667 14.0556C10.3333 14.0556 11.7502 13.4967 12.9173 12.3791C14.0844 11.2615 14.6676 9.90363 14.6667 8.30556C14.6658 6.70748 14.0827 5.35006 12.9173 4.23328C11.752 3.1165 10.3351 2.55726 8.66667 2.55556C6.99822 2.55385 5.58178 3.11309 4.41733 4.23328C3.25289 5.35346 2.66933 6.71089 2.66667 8.30556C2.664 9.90022 3.24756 11.2581 4.41733 12.3791C5.58711 13.5001 7.00356 14.059 8.66667 14.0556Z" fill="#284B63"/>
</svg>
